<svg width="50" height="51" viewBox="0 0 50 51" fill="none" xmlns="http://www.w3.org/2000/svg">
<path d="M15.542 40.7919H11.5419C5.41689 40.3544 2.66699 35.646 2.66699 31.4585C2.66699 27.271 5.41691 22.5419 11.4377 22.1252C12.2919 22.0419 13.0419 22.7085 13.1044 23.5835C13.1669 24.4377 12.5212 25.1877 11.6462 25.2502C7.60449 25.5419 5.79199 28.5835 5.79199 31.4794C5.79199 34.3752 7.60449 37.4169 11.6462 37.7085H15.542C16.3961 37.7085 17.1045 38.4169 17.1045 39.271C17.1045 40.1252 16.3961 40.7919 15.542 40.7919Z" fill="#292D32"/>
<path d="M34.7294 40.7917C34.6877 40.7917 34.6669 40.7917 34.6252 40.7917C33.771 40.7917 32.9794 40.0834 32.9794 39.2292C32.9794 38.3334 33.6461 37.6667 34.5211 37.6667C37.0836 37.6667 39.3752 36.7709 41.1669 35.1668C44.4169 32.3334 44.6252 28.2501 43.7502 25.3751C42.8752 22.5209 40.4377 19.2501 36.1877 18.7293C35.5002 18.6459 34.9585 18.1251 34.8335 17.4376C34.0002 12.4376 31.3127 8.97926 27.2294 7.72926C23.0211 6.41676 18.1043 7.70842 15.0418 10.9168C12.0627 14.0209 11.3752 18.3751 13.1043 23.1668C13.396 23.9793 12.9795 24.8751 12.167 25.1667C11.3545 25.4584 10.4586 25.0418 10.1669 24.2293C8.06274 18.3543 9.02109 12.7293 12.7919 8.77092C16.6461 4.72925 22.8336 3.12507 28.1461 4.75007C33.0211 6.25007 36.4585 10.2709 37.7085 15.8542C41.9585 16.8126 45.3752 20.0418 46.7294 24.5001C48.2085 29.3543 46.8752 34.3543 43.2294 37.5209C40.9169 39.6043 37.896 40.7917 34.7294 40.7917Z" fill="#292D32"/>
<path d="M24.9997 46.9168C20.8122 46.9168 16.8955 44.6877 14.7497 41.0835C14.5205 40.7293 14.2914 40.3127 14.1039 39.8543C13.3955 38.3752 13.0205 36.6877 13.0205 34.9377C13.0205 28.3335 18.3955 22.9585 24.9997 22.9585C31.6038 22.9585 36.9788 28.3335 36.9788 34.9377C36.9788 36.7085 36.6039 38.3752 35.8539 39.9168C35.6872 40.3127 35.4581 40.7293 35.2081 41.1252C33.1039 44.6877 29.1872 46.9168 24.9997 46.9168ZM24.9997 26.0835C20.1247 26.0835 16.1455 30.0627 16.1455 34.9377C16.1455 36.2293 16.4164 37.4377 16.9372 38.5418C17.1039 38.896 17.2496 39.1877 17.4163 39.4585C18.9996 42.146 21.8955 43.7918 24.9788 43.7918C28.0622 43.7918 30.958 42.146 32.5205 39.5002C32.708 39.1877 32.8747 38.896 32.9997 38.6043C33.5622 37.4585 33.833 36.2502 33.833 34.9585C33.8538 30.0627 29.8747 26.0835 24.9997 26.0835Z" fill="#292D32"/>
<path d="M23.8122 38.5626C23.4164 38.5626 23.0206 38.4168 22.7081 38.1043L20.6455 36.0417C20.0413 35.4376 20.0413 34.4376 20.6455 33.8334C21.2497 33.2292 22.2497 33.2292 22.8538 33.8334L23.8539 34.8334L27.1872 31.7501C27.833 31.1667 28.8122 31.2084 29.3955 31.8334C29.9789 32.4584 29.9372 33.4584 29.3122 34.0418L24.8747 38.1459C24.5622 38.4168 24.1872 38.5626 23.8122 38.5626Z" fill="#292D32"/>
</svg>
