<svg width="21" height="20" viewBox="0 0 21 20" fill="none" xmlns="http://www.w3.org/2000/svg">
<path fill-rule="evenodd" clip-rule="evenodd" d="M14.225 20V12.255H16.825L17.214 9.237H14.224V7.31C14.224 6.436 14.467 5.84 15.721 5.84H17.319V3.14C16.5452 3.05685 15.7673 3.01679 14.989 3.02C12.685 3.02 11.108 4.427 11.108 7.01V9.237H8.5V12.255H11.107V20H1.604C0.994 20 0.5 19.506 0.5 18.896V1.104C0.5 0.494 0.994 0 1.604 0H19.396C20.006 0 20.5 0.494 20.5 1.104V18.896C20.5 19.506 20.006 20 19.396 20H14.225Z" fill="#5856D6"/>
</svg>
