<svg width="17" height="16" viewBox="0 0 17 16" fill="none" xmlns="http://www.w3.org/2000/svg">
<path d="M12.75 0H4.25C2.17893 0 0.5 1.67893 0.5 3.75V12.25C0.5 14.3211 2.17893 16 4.25 16H12.75C14.8211 16 16.5 14.3211 16.5 12.25V3.75C16.5 1.67893 14.8211 0 12.75 0Z" fill="url(#paint0_radial_812_6732)"/>
<path d="M12.75 0H4.25C2.17893 0 0.5 1.67893 0.5 3.75V12.25C0.5 14.3211 2.17893 16 4.25 16H12.75C14.8211 16 16.5 14.3211 16.5 12.25V3.75C16.5 1.67893 14.8211 0 12.75 0Z" fill="url(#paint1_radial_812_6732)"/>
<path d="M8.50056 1.75C6.80319 1.75 6.59013 1.75744 5.9235 1.78775C5.25813 1.81825 4.80394 1.92356 4.40656 2.07812C3.99544 2.23775 3.64675 2.45131 3.29938 2.79881C2.95169 3.14625 2.73813 3.49494 2.578 3.90587C2.423 4.30338 2.31756 4.75775 2.28762 5.42281C2.25781 6.0895 2.25 6.30263 2.25 8.00006C2.25 9.6975 2.2575 9.90987 2.28775 10.5765C2.31838 11.2419 2.42369 11.6961 2.57812 12.0934C2.73787 12.5046 2.95144 12.8533 3.29894 13.2006C3.64625 13.5483 3.99494 13.7624 4.40575 13.922C4.80344 14.0766 5.25769 14.1819 5.92294 14.2124C6.58962 14.2427 6.8025 14.2501 8.49981 14.2501C10.1974 14.2501 10.4097 14.2427 11.0764 14.2124C11.7417 14.1819 12.1964 14.0766 12.5941 13.922C13.0051 13.7624 13.3532 13.5483 13.7005 13.2006C14.0482 12.8533 14.2617 12.5046 14.4219 12.0936C14.5755 11.6961 14.681 11.2417 14.7122 10.5766C14.7422 9.91 14.75 9.6975 14.75 8.00006C14.75 6.30263 14.7422 6.08962 14.7122 5.42294C14.681 4.75756 14.5755 4.30344 14.4219 3.90606C14.2617 3.49494 14.0482 3.14625 13.7005 2.79881C13.3529 2.45119 13.0052 2.23762 12.5938 2.07819C12.1953 1.92356 11.7409 1.81819 11.0755 1.78775C10.4088 1.75744 10.1966 1.75 8.49862 1.75H8.50056ZM7.93988 2.87631C8.10631 2.87606 8.292 2.87631 8.50056 2.87631C10.1694 2.87631 10.3671 2.88231 11.0261 2.91225C11.6355 2.94012 11.9663 3.04194 12.1866 3.1275C12.4783 3.24075 12.6862 3.37619 12.9048 3.595C13.1236 3.81375 13.2589 4.02206 13.3725 4.31375C13.4581 4.53375 13.56 4.8645 13.5878 5.47388C13.6177 6.13275 13.6242 6.33062 13.6242 7.99862C13.6242 9.66663 13.6177 9.86456 13.5878 10.5234C13.5599 11.1327 13.4581 11.4635 13.3725 11.6836C13.2593 11.9753 13.1236 12.1829 12.9048 12.4016C12.6861 12.6203 12.4784 12.7557 12.1866 12.869C11.9665 12.9549 11.6355 13.0565 11.0261 13.0844C10.3673 13.1143 10.1694 13.1208 8.50056 13.1208C6.83169 13.1208 6.63387 13.1143 5.97506 13.0844C5.36569 13.0563 5.03494 12.9544 4.81444 12.8689C4.52281 12.7556 4.31444 12.6202 4.09569 12.4014C3.87694 12.1827 3.74156 11.9749 3.628 11.6831C3.54244 11.463 3.4405 11.1322 3.41275 10.5229C3.38281 9.864 3.37681 9.66613 3.37681 7.99706C3.37681 6.328 3.38281 6.13119 3.41275 5.47231C3.44062 4.86294 3.54244 4.53219 3.628 4.31187C3.74131 4.02019 3.87694 3.81188 4.09575 3.59313C4.31456 3.37438 4.52281 3.23894 4.8145 3.12544C5.03481 3.0395 5.36569 2.93794 5.97506 2.90994C6.55162 2.88387 6.77506 2.87606 7.93988 2.87475V2.87631ZM11.8368 3.91406C11.4228 3.91406 11.0868 4.24969 11.0868 4.66381C11.0868 5.07788 11.4228 5.41381 11.8368 5.41381C12.2509 5.41381 12.5868 5.07788 12.5868 4.66381C12.5868 4.24975 12.2509 3.91381 11.8368 3.91381V3.91406ZM8.50056 4.79038C6.72806 4.79038 5.29094 6.2275 5.29094 8.00006C5.29094 9.77262 6.72806 11.2091 8.50056 11.2091C10.2731 11.2091 11.7098 9.77262 11.7098 8.00006C11.7098 6.22756 10.273 4.79038 8.50044 4.79038H8.50056ZM8.50056 5.91669C9.65112 5.91669 10.5839 6.84938 10.5839 8.00006C10.5839 9.15063 9.65112 10.0834 8.50056 10.0834C7.35 10.0834 6.41725 9.15063 6.41725 8.00006C6.41725 6.84938 7.34994 5.91669 8.50056 5.91669Z" fill="white"/>
<defs>
<radialGradient id="paint0_radial_812_6732" cx="0" cy="0" r="1" gradientUnits="userSpaceOnUse" gradientTransform="translate(4.75 17.2323) rotate(-90) scale(15.8572 14.7484)">
<stop stop-color="#FFDD55"/>
<stop offset="0.1" stop-color="#FFDD55"/>
<stop offset="0.5" stop-color="#FF543E"/>
<stop offset="1" stop-color="#C837AB"/>
</radialGradient>
<radialGradient id="paint1_radial_812_6732" cx="0" cy="0" r="1" gradientUnits="userSpaceOnUse" gradientTransform="translate(-2.18006 1.15256) rotate(78.681) scale(7.08825 29.218)">
<stop stop-color="#3771C8"/>
<stop offset="0.128" stop-color="#3771C8"/>
<stop offset="1" stop-color="#6600FF" stop-opacity="0"/>
</radialGradient>
</defs>
</svg>
