<svg width="25" height="24" viewBox="0 0 25 24" fill="none" xmlns="http://www.w3.org/2000/svg">
<path d="M22.2403 5.45707C22.2552 5.27404 22.2552 5.0901 22.2403 4.90707C22.1343 4.15599 21.7557 3.47016 21.1767 2.98019C20.5976 2.49022 19.8586 2.23035 19.1003 2.25007H5.92033C5.61366 2.2574 5.31166 2.30007 5.01433 2.37807C4.34865 2.56065 3.76359 2.96156 3.35304 3.51646C2.94248 4.07136 2.73023 4.74809 2.75033 5.43807V18.5131C2.747 18.7817 2.77333 19.0474 2.82933 19.3101C2.98362 20.0204 3.3826 20.6539 3.95655 21.0999C4.5305 21.5459 5.24293 21.776 5.96933 21.7501H19.0303C19.4189 21.7535 19.8051 21.6902 20.1723 21.5631C20.7873 21.3572 21.32 20.9594 21.6921 20.4282C22.0642 19.897 22.256 19.2604 22.2393 18.6121C22.2493 14.1941 22.2403 9.82607 22.2403 5.45707ZM18.9133 16.3711C18.5993 16.5511 18.3773 16.6111 18.0363 16.7321C17.9657 16.7499 17.9004 16.7842 17.8456 16.8321C17.7908 16.8801 17.7482 16.9404 17.7213 17.0081C17.6482 17.2118 17.5149 17.3885 17.3393 17.5149C17.1636 17.6413 16.9537 17.7114 16.7373 17.7161L15.9203 17.7661C15.4739 17.829 15.0488 17.9973 14.6803 18.2571C14.1429 18.6117 13.525 18.8255 12.8833 18.8788C12.2416 18.9321 11.5969 18.8232 11.0083 18.5621C10.7818 18.4738 10.5669 18.3582 10.3683 18.2181C9.86734 17.8853 9.27662 17.7137 8.67533 17.7261C8.49338 17.7292 8.31164 17.7124 8.13333 17.6761C7.95751 17.6479 7.79254 17.5729 7.6558 17.4588C7.51906 17.3448 7.4156 17.196 7.35633 17.0281C7.33261 16.9503 7.28781 16.8807 7.22692 16.8268C7.16602 16.773 7.0914 16.7371 7.01133 16.7231C6.58816 16.6277 6.19557 16.428 5.86933 16.1421C5.74713 16.0486 5.65171 15.9245 5.59268 15.7824C5.53365 15.6404 5.51308 15.4852 5.53305 15.3327C5.55302 15.1801 5.61282 15.0355 5.70644 14.9134C5.80006 14.7913 5.92418 14.696 6.06633 14.6371C6.42133 14.4301 6.77533 14.2331 7.11033 13.9971C7.52033 13.7001 7.85733 13.3131 8.09433 12.8661C8.24233 12.5711 8.23233 12.5411 7.96633 12.3641C7.68529 12.1844 7.41577 11.9874 7.15933 11.7741C6.9758 11.623 6.84266 11.4195 6.77763 11.1909C6.7126 10.9622 6.71878 10.7191 6.79533 10.4941C6.88092 10.1954 7.07727 9.94056 7.34432 9.78167C7.61136 9.62278 7.92897 9.57178 8.23233 9.63907H8.41933C8.33247 8.99102 8.40147 8.33159 8.62061 7.71556C8.83975 7.09953 9.20271 6.54467 9.67933 6.09707C10.4657 5.43579 11.4672 5.0857 12.4943 5.11307C13.0877 5.09375 13.6783 5.20133 14.2267 5.42862C14.7751 5.65592 15.2686 5.99769 15.6743 6.43107C16.0526 6.87967 16.335 7.40094 16.5042 7.96279C16.6735 8.52465 16.7259 9.11519 16.6583 9.69807C16.8817 9.67807 17.105 9.67807 17.3283 9.69807C17.5615 9.72364 17.7811 9.82052 17.9572 9.9755C18.1333 10.1305 18.2573 10.336 18.3123 10.5641C18.3772 10.7863 18.3764 11.0225 18.3101 11.2443C18.2437 11.4661 18.1146 11.664 17.9383 11.8141C17.6685 12.0401 17.3857 12.2501 17.0913 12.4431C16.8653 12.5901 16.8553 12.6201 16.9733 12.8661C17.3369 13.5341 17.8878 14.0812 18.5583 14.4401L18.9913 14.6761C19.1468 14.7469 19.2791 14.8602 19.3729 15.003C19.4666 15.1458 19.5181 15.3123 19.5212 15.4831C19.5243 15.6539 19.4791 15.8221 19.3906 15.9683C19.3021 16.1145 19.1741 16.2326 19.0213 16.3091L18.9133 16.3711Z" fill="#C8CC09"/>
<path d="M18.3318 15.3162C18.3318 15.3842 18.2338 15.4832 18.1548 15.5122C17.8398 15.6402 17.5248 15.7682 17.1708 15.8672C17.0445 15.8854 16.9287 15.9477 16.8439 16.043C16.7592 16.1384 16.7109 16.2607 16.7078 16.3882C16.7077 16.4287 16.6994 16.4687 16.6832 16.5058C16.6671 16.5429 16.6436 16.5763 16.6141 16.6039C16.5846 16.6315 16.5497 16.6529 16.5116 16.6665C16.4736 16.6801 16.4331 16.6858 16.3928 16.6832L15.4088 16.7522C14.9058 16.8362 14.4288 17.0312 14.0108 17.3222C13.5244 17.6401 12.9537 17.8044 12.3728 17.7941C11.7919 17.7838 11.2275 17.5992 10.7528 17.2642C10.1645 16.8906 9.48055 16.6957 8.78375 16.7032H8.73375C8.35075 16.7032 8.30175 16.6432 8.24275 16.2702C8.23792 16.1954 8.21103 16.1236 8.16547 16.064C8.11991 16.0044 8.05773 15.9596 7.98675 15.9352C7.81875 15.8672 7.65175 15.8272 7.48475 15.7582C7.31675 15.6902 7.05175 15.6012 6.84475 15.5032C6.63775 15.4042 6.65775 15.3842 6.65775 15.3062C6.65775 15.2282 6.75575 15.1582 6.83475 15.1192C7.49452 14.8086 8.08156 14.3626 8.55775 13.8102C8.85775 13.4502 9.07775 13.0312 9.20775 12.5802C9.24916 12.4866 9.25494 12.3811 9.224 12.2835C9.19307 12.1859 9.12754 12.1029 9.03975 12.0502C8.77375 11.8722 8.49875 11.6952 8.24275 11.5082C8.10721 11.4131 7.98187 11.3042 7.86875 11.1832C7.82097 11.1157 7.79531 11.035 7.79531 10.9522C7.79531 10.8695 7.82097 10.7888 7.86875 10.7212C7.90408 10.6508 7.96193 10.5941 8.03312 10.5602C8.10431 10.5263 8.18477 10.5172 8.26175 10.5342C8.46508 10.5769 8.66508 10.6292 8.86175 10.6912L8.99175 10.7212L9.12475 10.7772C9.40075 10.8762 9.39475 10.7412 9.38475 10.4552C9.34091 9.81666 9.34091 9.17583 9.38475 8.53725C9.4522 8.02656 9.6654 7.54614 9.99882 7.15348C10.3322 6.76082 10.7718 6.47258 11.2648 6.32325C12.1066 6.00671 13.0389 6.03147 13.8628 6.39225C14.3984 6.59576 14.8575 6.96063 15.1768 7.43644C15.496 7.91224 15.6595 8.47546 15.6448 9.04825V10.6232C15.6448 10.8782 15.6948 10.9082 15.9208 10.8292L16.5898 10.6032C16.6744 10.5875 16.7611 10.5875 16.8458 10.6032C16.9204 10.5967 16.9954 10.6117 17.0618 10.6467C17.1281 10.6816 17.1829 10.7349 17.2198 10.8002C17.2682 10.8637 17.2945 10.9414 17.2945 11.0212C17.2945 11.1011 17.2682 11.1788 17.2198 11.2422C17.1108 11.3667 16.9888 11.479 16.8558 11.5772C16.6288 11.7342 16.3928 11.8722 16.1558 12.0302C15.9208 12.1872 15.7828 12.3742 15.9108 12.7582C16.1411 13.4652 16.5848 14.0836 17.1808 14.5282C17.4958 14.7742 17.6868 14.8752 18.0428 15.1182C18.1938 15.2202 18.3418 15.2472 18.3318 15.3162Z" fill="white"/>
</svg>
