<svg width="18" height="22" viewBox="0 0 18 22" fill="none" xmlns="http://www.w3.org/2000/svg">
<path d="M8.99967 11.5417C8.0913 11.5417 7.32258 11.2271 6.69353 10.5978C6.06429 9.96876 5.74967 9.20004 5.74967 8.29167C5.74967 7.38329 6.06429 6.61458 6.69353 5.98552C7.32258 5.35629 8.0913 5.04167 8.99967 5.04167C9.90805 5.04167 10.6768 5.35629 11.3058 5.98552C11.9351 6.61458 12.2497 7.38329 12.2497 8.29167C12.2497 9.20004 11.9351 9.96876 11.3058 10.5978C10.6768 11.2271 9.90805 11.5417 8.99967 11.5417ZM8.99967 10.4583C9.58991 10.4583 10.0986 10.2448 10.5258 9.81781C10.9528 9.39062 11.1663 8.88191 11.1663 8.29167C11.1663 7.70143 10.9528 7.19272 10.5258 6.76552C10.0986 6.33851 9.58991 6.125 8.99967 6.125C8.40944 6.125 7.90072 6.33851 7.47353 6.76552C7.04651 7.19272 6.83301 7.70143 6.83301 8.29167C6.83301 8.88191 7.04651 9.39062 7.47353 9.81781C7.90072 10.2448 8.40944 10.4583 8.99967 10.4583ZM8.99967 21.1043L0.333008 15.8124V6.18757L8.99967 0.895752L17.6663 6.18757V15.8124L8.99967 21.1043ZM8.99967 19.8563L13.5017 17.1C12.8183 16.7055 12.0965 16.4027 11.3362 16.1916C10.5757 15.9805 9.79683 15.875 8.99967 15.875C8.20252 15.875 7.4237 15.9805 6.6632 16.1916C5.90288 16.4027 5.18101 16.7055 4.49761 17.1L8.99967 19.8563ZM3.45382 16.4521C4.28708 15.9354 5.17316 15.5295 6.11205 15.2345C7.05094 14.9393 8.01348 14.7917 8.99967 14.7917C9.98587 14.7917 10.9484 14.9393 11.8873 15.2345C12.8262 15.5295 13.7123 15.9354 14.5455 16.4521L16.583 15.225V6.80209L8.99967 2.17084L1.41634 6.80209V15.225L3.45382 16.4521Z" fill="#21272A"/>
</svg>
