<svg width="24" height="24" viewBox="0 0 24 24" fill="none" xmlns="http://www.w3.org/2000/svg">
<g id="favorite_24dp_E8EAED_FILL0_wght200_GRAD0_opsz24 1">
<path id="Vector" d="M11.5333 20L10.5419 19.0757C9.0529 17.6749 7.82156 16.4712 6.84786 15.4646C5.87416 14.4578 5.10257 13.5618 4.53308 12.7765C3.96359 11.9914 3.56575 11.2752 3.33954 10.6278C3.11318 9.98056 3 9.32379 3 8.65746C3 7.33552 3.42981 6.22875 4.28943 5.33716C5.1492 4.44572 6.21647 4 7.49123 4C8.2754 4 9.01645 4.19018 9.71439 4.57054C10.4123 4.9509 11.0186 5.49636 11.5333 6.20694C12.048 5.49636 12.6543 4.9509 13.3523 4.57054C14.0502 4.19018 14.7913 4 15.5754 4C16.8502 4 17.9175 4.44572 18.7772 5.33716C19.6369 6.22875 20.0667 7.33552 20.0667 8.65746C20.0667 9.32379 19.9535 9.98056 19.7271 10.6278C19.5009 11.2752 19.1031 11.9914 18.5336 12.7765C17.9641 13.5618 17.1939 14.4578 16.2231 15.4646C15.2524 16.4712 14.0196 17.6749 12.5248 19.0757L11.5333 20ZM11.5333 18.1121C12.9705 16.7711 14.1532 15.6216 15.0814 14.6637C16.0096 13.706 16.7432 12.8739 17.2821 12.1676C17.8211 11.4612 18.1953 10.8339 18.4049 10.2857C18.6145 9.73768 18.7193 9.19493 18.7193 8.65746C18.7193 7.72597 18.4199 6.94972 17.8211 6.32873C17.2222 5.70773 16.4737 5.39724 15.5754 5.39724C14.8661 5.39724 14.2106 5.60589 13.6087 6.0232C13.0071 6.44066 12.5306 7.02137 12.1794 7.76532H10.8873C10.5302 7.01532 10.0523 6.43313 9.45345 6.01878C8.85462 5.60442 8.20054 5.39724 7.49123 5.39724C6.59867 5.39724 5.85156 5.70773 5.24988 6.32873C4.64821 6.94972 4.34737 7.72597 4.34737 8.65746C4.34737 9.19493 4.45216 9.73768 4.66175 10.2857C4.87135 10.8339 5.24561 11.4612 5.78456 12.1676C6.32351 12.8739 7.05708 13.7045 7.98526 14.6593C8.91345 15.6141 10.0961 16.765 11.5333 18.1121Z" fill="#212121"/>
</g>
</svg>
