<svg width="25" height="24" viewBox="0 0 25 24" fill="none" xmlns="http://www.w3.org/2000/svg">
<g id="flat-color-icons:google">
<path id="Vector" d="M22.6742 10.0415H21.8687V10H12.8687V14H18.5202C17.6957 16.3285 15.4802 18 12.8687 18C9.55515 18 6.86865 15.3135 6.86865 12C6.86865 8.6865 9.55515 6 12.8687 6C14.3982 6 15.7897 6.577 16.8492 7.5195L19.6777 4.691C17.8917 3.0265 15.5027 2 12.8687 2C7.34615 2 2.86865 6.4775 2.86865 12C2.86865 17.5225 7.34615 22 12.8687 22C18.3912 22 22.8687 17.5225 22.8687 12C22.8687 11.3295 22.7997 10.675 22.6742 10.0415Z" fill="#FFC107"/>
<path id="Vector_2" d="M4.02197 7.3455L7.30747 9.755C8.19647 7.554 10.3495 6 12.869 6C14.3985 6 15.79 6.577 16.8495 7.5195L19.678 4.691C17.892 3.0265 15.503 2 12.869 2C9.02797 2 5.69697 4.1685 4.02197 7.3455Z" fill="#FF3D00"/>
<path id="Vector_3" d="M12.8688 22.0003C15.4518 22.0003 17.7988 21.0118 19.5733 19.4043L16.4783 16.7853C15.4406 17.5745 14.1725 18.0014 12.8688 18.0003C10.2678 18.0003 8.05931 16.3418 7.22731 14.0273L3.96631 16.5398C5.62131 19.7783 8.98231 22.0003 12.8688 22.0003Z" fill="#30FF38"/>
<path id="Vector_4" d="M22.6742 10.0415H21.8687V10H12.8687V14H18.5202C18.1258 15.1082 17.4153 16.0766 16.4767 16.7855L16.4782 16.7845L19.5732 19.4035C19.3542 19.6025 22.8687 17 22.8687 12C22.8687 11.3295 22.7997 10.675 22.6742 10.0415Z" fill="#1976D2"/>
</g>
</svg>
