<svg width="24" height="24" viewBox="0 0 24 24" fill="none" xmlns="http://www.w3.org/2000/svg">
<g id="orders_24dp_E8EAED_FILL0_wght300_GRAD0_opsz24 1">
<path id="Vector" d="M4.50023 19.5003V7.6003L2.64648 3.54255L4.00398 2.9043L6.14248 7.5503H17.858L19.9965 2.9043L21.354 3.54255L19.5002 7.6003V19.5003H4.50023ZM10.0002 12.7503H14.0002C14.2127 12.7503 14.3908 12.6784 14.5345 12.5345C14.6783 12.3907 14.7502 12.2125 14.7502 12C14.7502 11.7874 14.6783 11.6093 14.5345 11.4658C14.3908 11.3221 14.2127 11.2503 14.0002 11.2503H10.0002C9.78773 11.2503 9.60965 11.3222 9.46598 11.466C9.32215 11.6099 9.25023 11.788 9.25023 12.0005C9.25023 12.2132 9.32215 12.3913 9.46598 12.5348C9.60965 12.6785 9.78773 12.7503 10.0002 12.7503ZM6.00023 18.0003H18.0002V9.0503H6.00023V18.0003Z" fill="#212121"/>
</g>
</svg>
