<svg width="25" height="18" viewBox="0 0 25 18" fill="none" xmlns="http://www.w3.org/2000/svg">
<g clip-path="url(#clip0_812_6736)">
<path d="M23.97 3.19453C23.8323 2.6858 23.5638 2.22201 23.1911 1.84934C22.8185 1.47667 22.3547 1.20812 21.846 1.07044C19.9835 0.5625 12.4878 0.5625 12.4878 0.5625C12.4878 0.5625 4.99177 0.577875 3.12933 1.08581C2.6206 1.2235 2.15681 1.49206 1.78415 1.86475C1.4115 2.23744 1.14298 2.70125 1.00533 3.21C0.441987 6.51919 0.223455 11.5616 1.0208 14.7384C1.15846 15.2472 1.42699 15.711 1.79964 16.0836C2.1723 16.4563 2.63608 16.7248 3.1448 16.8625C5.00724 17.3705 12.5031 17.3705 12.5031 17.3705C12.5031 17.3705 19.9989 17.3705 21.8612 16.8625C22.37 16.7249 22.8338 16.4563 23.2064 16.0836C23.5791 15.711 23.8477 15.2472 23.9853 14.7384C24.5795 11.4246 24.7626 6.38522 23.97 3.19453Z" fill="#FF0000"/>
<path d="M10.1016 12.5681L16.3198 8.96643L10.1016 5.36475V12.5681Z" fill="white"/>
</g>
<defs>
<clipPath id="clip0_812_6736">
<rect width="24" height="16.875" fill="white" transform="translate(0.5 0.5625)"/>
</clipPath>
</defs>
</svg>
