<svg width="25" height="24" viewBox="0 0 25 24" fill="none" xmlns="http://www.w3.org/2000/svg">
<g id="ant-design:apple-filled">
<path id="Vector" d="M18.1002 12.5555C18.0908 10.957 18.815 9.75234 20.2775 8.86406C19.4596 7.69219 18.2221 7.04766 16.5908 6.92344C15.0463 6.80156 13.3564 7.82344 12.7377 7.82344C12.0838 7.82344 10.5885 6.96563 9.41191 6.96563C6.98379 7.00313 4.40332 8.90156 4.40332 12.7641C4.40332 13.9055 4.61191 15.0844 5.0291 16.2984C5.58691 17.8969 7.59785 21.8133 9.69551 21.75C10.7924 21.7242 11.5682 20.9719 12.9955 20.9719C14.3807 20.9719 15.0979 21.75 16.3213 21.75C18.4377 21.7195 20.2564 18.1594 20.7861 16.5563C17.9479 15.218 18.1002 12.6375 18.1002 12.5555ZM15.6369 5.40703C16.8252 3.99609 16.7174 2.71172 16.6822 2.25C15.6322 2.31094 14.4182 2.96484 13.7268 3.76875C12.965 4.63125 12.5174 5.69766 12.6135 6.9C13.7479 6.98672 14.7838 6.40313 15.6369 5.40703Z" fill="#313131"/>
</g>
</svg>
