<svg width="16" height="16" viewBox="0 0 16 16" fill="none" xmlns="http://www.w3.org/2000/svg">
<g id="vuesax/outline/trash">
<g id="trash">
<path id="Vector" d="M13.9999 4.48667C13.9866 4.48667 13.9666 4.48667 13.9466 4.48667C10.4199 4.13333 6.89994 4 3.41328 4.35333L2.05328 4.48667C1.77328 4.51333 1.52661 4.31333 1.49994 4.03333C1.47328 3.75333 1.67328 3.51333 1.94661 3.48667L3.30661 3.35333C6.85328 2.99333 10.4466 3.13333 14.0466 3.48667C14.3199 3.51333 14.5199 3.76 14.4933 4.03333C14.4733 4.29333 14.2533 4.48667 13.9999 4.48667Z" fill="#292D32"/>
<path id="Vector_2" d="M5.66651 3.81333C5.63984 3.81333 5.61318 3.81333 5.57984 3.80667C5.31318 3.76 5.12651 3.5 5.17318 3.23333L5.31984 2.36C5.42651 1.72 5.57318 0.833333 7.12651 0.833333H8.87318C10.4332 0.833333 10.5798 1.75333 10.6798 2.36667L10.8265 3.23333C10.8732 3.50667 10.6865 3.76667 10.4198 3.80667C10.1465 3.85333 9.88651 3.66667 9.84651 3.4L9.69984 2.53333C9.60651 1.95333 9.58651 1.84 8.87984 1.84H7.13318C6.42651 1.84 6.41318 1.93333 6.31318 2.52667L6.15984 3.39333C6.11984 3.64 5.90651 3.81333 5.66651 3.81333Z" fill="#292D32"/>
<path id="Vector_3" d="M10.1401 15.1667H5.8601C3.53343 15.1667 3.4401 13.88 3.36676 12.84L2.93343 6.12667C2.91343 5.85333 3.12676 5.61333 3.4001 5.59333C3.6801 5.58 3.91343 5.78667 3.93343 6.06L4.36676 12.7733C4.4401 13.7867 4.46676 14.1667 5.8601 14.1667H10.1401C11.5401 14.1667 11.5668 13.7867 11.6334 12.7733L12.0668 6.06C12.0868 5.78667 12.3268 5.58 12.6001 5.59333C12.8734 5.61333 13.0868 5.84667 13.0668 6.12667L12.6334 12.84C12.5601 13.88 12.4668 15.1667 10.1401 15.1667Z" fill="#292D32"/>
<path id="Vector_4" d="M9.10672 11.5H6.88672C6.61339 11.5 6.38672 11.2733 6.38672 11C6.38672 10.7267 6.61339 10.5 6.88672 10.5H9.10672C9.38005 10.5 9.60672 10.7267 9.60672 11C9.60672 11.2733 9.38005 11.5 9.10672 11.5Z" fill="#292D32"/>
<path id="Vector_5" d="M9.66683 8.83333H6.3335C6.06016 8.83333 5.8335 8.60667 5.8335 8.33333C5.8335 8.06 6.06016 7.83333 6.3335 7.83333H9.66683C9.94016 7.83333 10.1668 8.06 10.1668 8.33333C10.1668 8.60667 9.94016 8.83333 9.66683 8.83333Z" fill="#292D32"/>
</g>
</g>
</svg>
